Coordinates
version=1
nRows=31
nColumns=38
inDegrees=no

Units are S.I. units (second, meters, Newtons, ...)
If the header above contains a line with 'inDegrees', this indicates whether rotational values are in degrees (yes) or radians (no).

endheader
time	pelvis_tilt	pelvis_list	pelvis_rotation	pelvis_tx	pelvis_ty	pelvis_tz	hip_flexion_r	hip_adduction_r	hip_rotation_r	knee_angle_r	ankle_angle_r	subtalar_angle_r	mtp_angle_r	hip_flexion_l	hip_adduction_l	hip_rotation_l	knee_angle_l	ankle_angle_l	subtalar_angle_l	mtp_angle_l	lumbar_extension	lumbar_bending	lumbar_rotation	arm_flex_r	arm_add_r	arm_rot_r	elbow_flex_r	pro_sup_r	wrist_flex_r	wrist_dev_r	arm_flex_l	arm_add_l	arm_rot_l	elbow_flex_l	pro_sup_l	wrist_flex_l	wrist_dev_l
0	2.73535	1.21144	-1.0428	0.642814	-0.532055	0.954662	-0.158206	0.105381	-0.682894	0.225572	-0.38583	0	0	-0.259799	-0.330229	-0.204379	1.26077	-0.115607	0	0	-0.455181	0.184262	-0.251482	0.137332	-0.479554	1.13052	0.646809	0.509383	0	0	-0.143437	-0.331798	0.0492515	0.923805	1.5708	0	0
0.01	2.74125	1.21666	-1.05106	0.644418	-0.522406	0.955999	-0.168972	0.106953	-0.669484	0.215685	-0.379426	0	0	-0.2198	-0.322774	-0.191028	1.30914	-0.0769107	0	0	-0.452579	0.177857	-0.248969	0.14098	-0.469432	1.13264	0.633443	0.503643	0	0	-0.14638	-0.330703	0.049092	0.915877	1.5708	0	0
0.02	2.75544	1.21862	-1.06746	0.645959	-0.512455	0.957682	-0.185683	0.106903	-0.661621	0.205544	-0.374532	0	0	-0.186354	-0.314899	-0.18298	1.3473	-0.0552736	0	0	-0.453314	0.170708	-0.245815	0.143389	-0.461801	1.13593	0.624588	0.496287	0	0	-0.149149	-0.329512	0.0489459	0.909133	1.5708	0	0
0.03	2.76739	1.21895	-1.08254	0.647525	-0.502087	0.959186	-0.204441	0.107769	-0.657865	0.195735	-0.370341	0	0	-0.154393	-0.321893	-0.200742	1.3815	-0.0487098	0	0	-0.453958	0.16453	-0.241081	0.144021	-0.456774	1.13945	0.619948	0.487616	0	0	-0.153943	-0.329419	0.0505436	0.905737	1.5708	0	0
0.04	2.78432	1.2168	-1.10277	0.648763	-0.492363	0.96089	-0.225594	0.107291	-0.652484	0.186372	-0.366194	0	0	-0.127004	-0.312838	-0.194203	1.40449	-0.0357708	0	0	-0.458759	0.158415	-0.235846	0.146932	-0.453583	1.14583	0.618123	0.47625	0	0	-0.157368	-0.332499	0.0584157	0.904999	1.56626	0	0
0.05	2.80535	1.21684	-1.1262	0.649961	-0.482842	0.962636	-0.244422	0.103952	-0.648223	0.178277	-0.362615	0	0	-0.0995487	-0.288501	-0.166123	1.41693	-0.0190219	0	0	-0.462185	0.150455	-0.230882	0.149584	-0.449373	1.15338	0.614976	0.463973	0	0	-0.158591	-0.337851	0.0717191	0.902828	1.55638	0	0
0.06	2.81121	1.21314	-1.13931	0.651466	-0.472122	0.963752	-0.26608	0.106473	-0.64497	0.16954	-0.359475	0	0	-0.0757607	-0.311906	-0.212908	1.43276	-0.0230434	0	0	-0.466844	0.146591	-0.224127	0.14517	-0.447623	1.1385	0.618132	0.474254	0	0	-0.17231	-0.333112	0.0557215	0.911613	1.5708	0	0
0.07	2.8357	1.21645	-1.16637	0.652658	-0.462831	0.965436	-0.281007	0.100087	-0.638635	0.161641	-0.356398	0	0	-0.048507	-0.270058	-0.163178	1.42763	-0.00176872	0	0	-0.469572	0.136257	-0.221467	0.14407	-0.43768	1.12599	0.608962	0.481392	0	0	-0.175117	-0.331676	0.0506386	0.910942	1.5708	0	0
0.08	2.83583	1.21015	-1.17787	0.654426	-0.451333	0.966164	-0.304912	0.103807	-0.635135	0.153716	-0.3523	0	0	-0.0330404	-0.324347	-0.26414	1.4355	-0.0182337	0	0	-0.473424	0.133237	-0.210372	0.137563	-0.439439	1.11338	0.616718	0.489618	0	0	-0.189923	-0.330137	0.0440972	0.923046	1.5708	0	0
0.09	2.84979	1.20598	-1.19964	0.655487	-0.441578	0.967336	-0.32544	0.100937	-0.626973	0.148387	-0.348375	0	0	-0.0163999	-0.319392	-0.275867	1.42609	-0.0165364	0	0	-0.481442	0.127348	-0.201745	0.135641	-0.440567	1.10298	0.623505	0.49475	0	0	-0.196031	-0.329231	0.0406112	0.930884	1.5708	0	0
0.1	2.87888	1.21177	-1.23118	0.656256	-0.433388	0.96861	-0.336399	0.0908072	-0.614595	0.140251	-0.343724	0	0	0.0118966	-0.244805	-0.181448	1.39734	0.0141904	0	0	-0.48523	0.114857	-0.198617	0.136762	-0.431809	1.08932	0.616031	0.501979	0	0	-0.193623	-0.329793	0.0397857	0.931061	1.5708	0	0
0.11	2.87802	1.20077	-1.24456	0.6578	-0.421873	0.96909	-0.364672	0.093084	-0.609405	0.134252	-0.338436	0	0	0.0149979	-0.305317	-0.300916	1.39163	-0.00882463	0	0	-0.49409	0.111947	-0.185183	0.130758	-0.437949	1.07638	0.629939	0.510423	0	0	-0.209623	-0.328223	0.0322179	0.947436	1.57042	0	0
0.12	2.893	1.19697	-1.26653	0.65881	-0.411911	0.969873	-0.385175	0.0887482	-0.602987	0.128593	-0.333719	0	0	0.0273602	-0.298051	-0.315175	1.36705	-0.0125942	0	0	-0.501405	0.104588	-0.177778	0.128708	-0.438776	1.06581	0.635974	0.515294	0	0	-0.215067	-0.326869	0.0268319	0.954952	1.5666	0	0
0.13	2.90855	1.1937	-1.28811	0.659731	-0.401961	0.970489	-0.405166	0.0840061	-0.597864	0.123037	-0.328457	0	0	0.038991	-0.290106	-0.330156	1.33788	-0.0162592	0	0	-0.507937	0.0966446	-0.171714	0.127239	-0.438133	1.05591	0.639367	0.520429	0	0	-0.220242	-0.326003	0.0219034	0.961533	1.56252	0	0
0.14	2.92609	1.18785	-1.31106	0.660644	-0.392187	0.971057	-0.429025	0.0798791	-0.590098	0.114263	-0.319702	0	0	0.0456369	-0.282181	-0.346613	1.30331	-0.0248506	0	0	-0.514876	0.0892341	-0.165665	0.141492	-0.446557	1.10177	0.64872	0.466038	0	0	-0.221564	-0.336749	0.0430053	0.966274	1.52612	0	0
0.15	2.93948	1.18638	-1.32899	0.661401	-0.382047	0.971209	-0.446375	0.0748321	-0.588292	0.110202	-0.316226	0	0	0.0558115	-0.273514	-0.361189	1.26466	-0.029556	0	0	-0.518972	0.0815612	-0.162309	0.140198	-0.443836	1.09028	0.64811	0.47897	0	0	-0.227987	-0.332273	0.0292901	0.971495	1.53026	0	0
0.16	2.95213	1.18409	-1.34533	0.662091	-0.371899	0.971197	-0.464624	0.0705138	-0.586553	0.105833	-0.311561	0	0	0.0634955	-0.2651	-0.376098	1.22126	-0.0371839	0	0	-0.523806	0.0744617	-0.159515	0.139262	-0.441293	1.07911	0.647061	0.488906	0	0	-0.233756	-0.329088	0.0179408	0.976482	1.53123	0	0
0.17	2.96322	1.18023	-1.35856	0.662612	-0.361675	0.971094	-0.484042	0.0674619	-0.583938	0.102753	-0.305583	0	0	0.0677785	-0.257633	-0.391899	1.1729	-0.0471682	0	0	-0.5299	0.0687413	-0.157681	0.138312	-0.439388	1.06784	0.646735	0.498327	0	0	-0.239318	-0.326871	0.00843061	0.981402	1.53245	0	0
0.18	2.97092	1.17806	-1.36895	0.66316	-0.351492	0.970574	-0.501924	0.0651886	-0.582129	0.097807	-0.299231	0	0	0.072429	-0.251014	-0.40923	1.12152	-0.0586351	0	0	-0.534249	0.0636533	-0.155464	0.13766	-0.438168	1.05686	0.647183	0.507775	0	0	-0.244627	-0.32507	-6.41363e-05	0.986019	1.5333	0	0
0.19	2.97544	1.17684	-1.37615	0.663663	-0.341305	0.969786	-0.518446	0.0638803	-0.580573	0.0926644	-0.292882	0	0	0.0765228	-0.245306	-0.428117	1.06781	-0.0708842	0	0	-0.537506	0.0597297	-0.153182	0.137433	-0.437276	1.0465	0.647345	0.517546	0	0	-0.248429	-0.322768	-0.00805007	0.988658	1.53247	0	0
0.2	2.97599	1.17854	-1.37908	0.664055	-0.331041	0.968643	-0.523599	0.0631166	-0.579038	0.090171	-0.287734	0	0	0.0827137	-0.24002	-0.447488	1.01315	-0.0806228	0	0	-0.537671	0.0571397	-0.15078	0.138239	-0.436853	1.03987	0.646495	0.52513	0	0	-0.250773	-0.320484	-0.0138831	0.988672	1.53134	0	0
0.21	2.98325	1.18523	-1.3876	0.664571	-0.320412	0.967288	-0.523599	0.0556871	-0.590468	0.104959	-0.22264	0	0	0.0905213	-0.229333	-0.467126	0.950311	-0.112308	0	0	-0.518144	0.0522544	-0.144433	0.168318	-0.437519	1.15619	0.623239	0.426973	0	0	-0.232035	-0.366319	0.0988359	0.967571	1.40182	0	0
0.22	2.9813	1.19285	-1.38605	0.664791	-0.309839	0.965552	-0.523599	0.0540876	-0.593121	0.109688	-0.200712	0	0	0.100328	-0.221218	-0.482793	0.891693	-0.11773	0	0	-0.506726	0.0500386	-0.142822	0.173933	-0.429801	1.17351	0.604549	0.422478	0	0	-0.227314	-0.375904	0.125754	0.957276	1.37154	0	0
0.23	2.97374	1.20302	-1.37817	0.664904	-0.299156	0.963373	-0.523599	0.0546124	-0.595326	0.112769	-0.178997	0	0	0.113605	-0.214715	-0.496424	0.837122	-0.116369	0	0	-0.491977	0.0494825	-0.141857	0.178675	-0.420156	1.18937	0.582643	0.42006	0	0	-0.222768	-0.384364	0.151831	0.946359	1.34265	0	0
0.24	2.97845	1.19888	-1.38148	0.664411	-0.289606	0.961656	-0.523599	0.0444244	-0.632415	0.145305	-0.183592	0	0	0.106839	-0.199316	-0.497779	0.76584	-0.137631	0	0	-0.513402	0.0489821	-0.150685	0.170598	-0.43434	1.12027	0.621213	0.468425	0	0	-0.246477	-0.338154	0.0282933	0.963131	1.4767	0	0
0.25	2.9728	1.20642	-1.37326	0.664107	-0.279233	0.959276	-0.523599	0.0431501	-0.643423	0.156654	-0.169268	0	0	0.114504	-0.186544	-0.493646	0.702575	-0.138863	0	0	-0.505218	0.0500086	-0.152264	0.175327	-0.43392	1.12923	0.616852	0.462162	0	0	-0.244481	-0.342905	0.0397376	0.956405	1.46601	0	0
0.26	2.96561	1.21457	-1.36247	0.663612	-0.268694	0.956735	-0.523599	0.0422625	-0.655623	0.169165	-0.154845	0	0	0.122101	-0.17319	-0.484081	0.640978	-0.136909	0	0	-0.495773	0.051734	-0.15452	0.179525	-0.433578	1.1384	0.612367	0.455658	0	0	-0.242407	-0.348445	0.0534226	0.94937	1.45419	0	0
0.27	2.95788	1.22434	-1.35121	0.663051	-0.257859	0.953998	-0.523599	0.0402762	-0.670141	0.182995	-0.140577	0	0	0.130173	-0.1596	-0.472922	0.583497	-0.13163	0	0	-0.484051	0.0528303	-0.15668	0.182715	-0.433062	1.14794	0.607511	0.449081	0	0	-0.240576	-0.35477	0.0691038	0.942327	1.4407	0	0
0.28	2.96365	1.24351	-1.35732	0.663157	-0.246553	0.949548	-0.523599	0.0224326	-0.686886	0.194065	-0.127948	0	0	0.145788	-0.140316	-0.463217	0.533445	-0.123469	0	0	-0.461828	0.0447146	-0.158087	0.183347	-0.432886	1.15795	0.605797	0.442773	0	0	-0.243594	-0.363986	0.0850184	0.939918	1.42525	0	0
0.29	2.95198	1.25077	-1.34451	0.662635	-0.235651	0.94707	-0.523599	0.0232174	-0.688025	0.200515	-0.120428	0	0	0.148537	-0.130348	-0.453952	0.486849	-0.116911	0	0	-0.45268	0.046067	-0.157812	0.187405	-0.431435	1.16963	0.599029	0.43696	0	0	-0.240902	-0.372074	0.105275	0.93334	1.40702	0	0
0.3	2.93629	1.25468	-1.32968	0.661946	-0.224542	0.944809	-0.523599	0.0234361	-0.689346	0.20887	-0.135719	0	0	0.149673	-0.127853	-0.461342	0.458435	-0.110394	0	0	-0.467026	0.0451732	-0.15874	0.113467	-0.399772	0.866185	0.602746	0.735453	0	0	-0.262688	-0.319461	-0.0310436	0.952137	1.56001	0	0
